PathFileType	4	(X/Y/Z)	c:/Users/goper/Files/vsCode/490R/osim_files/C11/C11_Slow_05.trc
DataRate	CameraRate	NumFrames	NumMarkers	Units                	OrigDataRate	OrigDataStartFrame	OrigNumFrames
120.00	120.00	10	36	mm	120.0	1367	1562
                Frame#	Time	LPSIS			LASIS			LTH1			LTH2			LTH3			LTH4			LLFE			LMFE			LSH1			LSH2			LSH3			LSH4			LLMAL			LMMAL			LCAL			LMTP5			LTOE			LMTP1			RPSIS			RASIS			RTH1			RTH2			RTH3			RTH4			RLFE			RMFE			RSH1			RSH2			RSH3			RSH4			RLMAL			RMMAL			RCAL			RMTP1			RTOE			RMTP5		
		X1	Y1	Z1	X2	Y2	Z2	X3	Y3	Z3	X4	Y4	Z4	X5	Y5	Z5	X6	Y6	Z6	X7	Y7	Z7	X8	Y8	Z8	X9	Y9	Z9	X10	Y10	Z10	X11	Y11	Z11	X12	Y12	Z12	X13	Y13	Z13	X14	Y14	Z14	X15	Y15	Z15	X16	Y16	Z16	X17	Y17	Z17	X18	Y18	Z18	X19	Y19	Z19	X20	Y20	Z20	X21	Y21	Z21	X22	Y22	Z22	X23	Y23	Z23	X24	Y24	Z24	X25	Y25	Z25	X26	Y26	Z26	X27	Y27	Z27	X28	Y28	Z28	X29	Y29	Z29	X30	Y30	Z30	X31	Y31	Z31	X32	Y32	Z32	X33	Y33	Z33	X34	Y34	Z34	X35	Y35	Z35	X36	Y36	Z36

1367	11.38333	-4488.37256	1025.11633	152.36064	0.00000	0.00000	0.00000	0.00000	0.00000	0.00000	0.00000	0.00000	0.00000	-1148.85327	737.32867	2785.02710	-1135.22217	734.53735	2742.16162	0.00000	0.00000	0.00000	-4227.31836	547.07953	47.12208	-1196.58789	735.79108	2721.03345	0.00000	0.00000	0.00000	0.00000	0.00000	0.00000	0.00000	0.00000	0.00000	-4257.92773	128.78772	82.78838	-4219.07959	142.97893	172.36789	-4309.11963	89.89526	141.58292	-4137.55225	74.35436	42.14687	-4062.84473	107.37627	102.12662	-4098.94531	85.61496	150.46674	-4488.88965	1035.71399	239.26341	0.00000	0.00000	0.00000	0.00000	0.00000	0.00000	-4425.09961	595.61908	342.72507	-4369.45410	640.76123	351.96057	-4372.47412	594.74957	344.40439	-4407.50244	512.93970	328.82523	-4425.14502	497.24899	212.02312	-4430.42236	405.18567	340.23135	0.00000	0.00000	0.00000	-4493.39111	418.49551	344.16388	-4498.79736	374.10626	338.61389	-4521.91650	107.76227	279.71341	-4493.33447	127.73663	188.72809	-4587.50537	80.93527	220.22885	-4355.14258	61.87307	220.87044	-4361.02197	73.03635	271.16800	-4409.95605	50.76355	328.66168
1368	11.39167	-4485.73877	1024.89856	152.61189	0.00000	0.00000	0.00000	0.00000	0.00000	0.00000	0.00000	0.00000	0.00000	-1148.84839	737.33771	2785.04517	-1135.25623	734.53619	2742.18677	0.00000	0.00000	0.00000	-4225.32520	546.27002	47.47512	-1196.60229	735.77551	2721.04810	0.00000	0.00000	0.00000	0.00000	0.00000	0.00000	0.00000	0.00000	0.00000	-4244.08203	127.15792	83.67094	-4206.15088	142.27824	173.38136	-4294.47803	87.07736	142.33243	-4122.48828	75.53382	43.43931	-4048.67358	110.23597	103.69313	-4084.51562	87.80753	151.89911	-4486.34375	1035.47742	239.44438	-4324.30176	998.60107	329.40964	0.00000	0.00000	0.00000	-4424.27100	595.68793	343.25778	-4368.47119	640.64484	352.26031	-4371.40332	594.59296	344.78885	-4407.39111	512.93591	329.22452	-4425.23730	497.35629	212.40694	-4430.45947	405.07431	340.50711	0.00000	0.00000	0.00000	-4493.38477	418.41418	344.40909	-4498.81738	373.99603	338.83020	-4521.94873	107.69393	279.69144	-4493.36670	127.70253	188.73521	-4587.54346	80.87765	220.20079	-4352.79883	62.73998	221.34344	-4361.04932	73.04639	271.16425	-4409.98047	50.73224	328.71460
1369	11.40000	-4483.04150	1024.62207	152.81912	0.00000	0.00000	0.00000	0.00000	0.00000	0.00000	0.00000	0.00000	0.00000	-1148.92786	737.31146	2785.04150	-1135.32812	734.53125	2742.19360	0.00000	0.00000	0.00000	-4223.31982	545.39471	47.84799	-1196.66956	735.74670	2721.06104	0.00000	0.00000	0.00000	0.00000	0.00000	0.00000	0.00000	0.00000	0.00000	-4228.40820	120.45990	84.79876	-4193.30664	141.80150	174.34381	-4279.90820	84.50692	143.00301	-4107.77490	77.05179	44.71352	-4035.21777	113.19696	105.27005	-4070.30518	90.08938	153.28001	-4483.66162	1035.22668	239.58533	0.00000	0.00000	0.00000	0.00000	0.00000	0.00000	-4423.61621	595.76251	343.82199	-4367.54980	640.48895	352.60629	-4370.47754	594.44757	345.27847	-4407.28418	512.93481	329.63290	-4423.86230	496.73492	212.32729	-4430.61621	404.97461	340.89984	0.00000	0.00000	0.00000	-4493.46729	418.31686	344.63681	-4498.89502	373.89011	339.07489	-4522.00635	107.63969	279.69342	-4493.41797	127.66286	188.75070	-4587.57031	80.78524	220.19783	-4375.51562	54.30026	216.98799	-4361.12939	73.04836	271.19669	-4410.03516	50.70139	328.70737
1370	11.40833	-4480.11914	1024.27222	153.08580	0.00000	0.00000	0.00000	0.00000	0.00000	0.00000	0.00000	0.00000	0.00000	-1148.88245	737.31946	2785.02148	-1135.34863	734.49561	2742.19409	0.00000	0.00000	0.00000	-4221.34473	544.55444	48.19456	-1196.71680	735.71997	2721.06396	0.00000	0.00000	0.00000	0.00000	0.00000	0.00000	0.00000	0.00000	0.00000	-4213.49854	120.28739	85.01382	-4180.68750	141.60280	175.29910	-4265.49707	82.28322	143.64758	-4093.13599	78.83032	45.90554	-4021.77246	116.59105	106.72822	-4056.27783	92.74781	154.57182	-4480.95947	1034.97400	239.70598	0.00000	0.00000	0.00000	0.00000	0.00000	0.00000	-4422.94385	595.85547	344.40817	-4366.75293	640.32306	353.05942	-4369.60938	594.31494	345.78397	-4407.19043	512.82349	330.12549	-4426.76709	499.71722	216.57979	-4430.77295	404.84384	341.30740	0.00000	0.00000	0.00000	-4493.61084	418.19797	344.93015	-4499.03613	373.79422	339.35977	-4522.09912	107.59319	279.70480	-4493.48242	127.63242	188.79427	-4587.60742	80.70158	220.20328	-4375.39697	54.37779	217.05786	-4361.14844	73.03277	271.22910	-4410.10645	50.67051	328.71591
1371	11.41667	-4477.18555	1023.92780	153.31097	0.00000	0.00000	0.00000	0.00000	0.00000	0.00000	0.00000	0.00000	0.00000	-1148.93176	737.30316	2785.05103	-1135.28772	734.52802	2742.18506	0.00000	0.00000	0.00000	-4219.20312	543.66107	48.58376	-1196.69055	735.72375	2721.06812	0.00000	0.00000	0.00000	0.00000	0.00000	0.00000	0.00000	0.00000	0.00000	-4200.17236	119.63056	85.75524	-4168.17676	141.60063	176.12901	-4251.27979	80.39112	144.20882	-4078.79370	80.97954	46.95049	-4008.17529	120.27933	108.06587	-4042.53418	95.69675	155.83125	-4478.10986	1034.75330	239.87888	0.00000	0.00000	0.00000	0.00000	0.00000	0.00000	-4422.38232	596.02881	345.05771	-4365.85059	640.10394	353.54614	-4368.83057	594.29877	346.34326	-4407.04297	512.62347	330.64108	-4426.84961	499.82892	217.05360	-4431.01172	404.76218	341.79541	0.00000	0.00000	0.00000	-4493.82812	418.15439	345.31998	-4499.24414	373.72125	339.70786	-4522.13916	107.49305	279.73627	0.00000	0.00000	0.00000	-4587.64648	80.67305	220.20749	-4375.37012	54.41519	217.09323	-4361.20654	73.05369	271.28616	-4410.13574	50.63889	328.75906
1372	11.42500	-4474.09961	1023.59119	153.51089	0.00000	0.00000	0.00000	0.00000	0.00000	0.00000	0.00000	0.00000	0.00000	-1148.84143	737.31586	2785.04614	-1135.21558	734.54114	2742.16602	0.00000	0.00000	0.00000	-4216.79248	542.72253	48.84923	-1196.58679	735.76654	2721.04858	0.00000	0.00000	0.00000	0.00000	0.00000	0.00000	0.00000	0.00000	0.00000	-4187.14258	119.30067	86.42786	-4155.86816	141.67009	176.88213	-4237.22461	78.80416	144.69096	-4064.59546	83.26566	48.00554	-3994.95996	124.11240	109.36824	-4029.15308	98.71487	157.12186	-4475.20557	1034.51172	239.98849	0.00000	0.00000	0.00000	-4424.03369	639.50500	352.46927	-4421.88428	596.13977	345.69623	-4364.99756	639.88165	354.06369	0.00000	0.00000	0.00000	-4407.04346	512.49921	331.16544	-4426.88721	499.91190	217.65866	-4431.30078	404.66751	342.35013	0.00000	0.00000	0.00000	-4494.05225	418.13892	345.72449	-4499.48779	373.63870	340.05997	-4522.20850	107.43462	279.77777	0.00000	0.00000	0.00000	-4587.66895	80.62868	220.19566	-4375.32422	54.47418	217.14424	-4361.24316	73.06338	271.39444	-4410.20459	50.64031	328.83154
1373	11.43333	-4470.87646	1023.12476	153.76576	0.00000	0.00000	0.00000	0.00000	0.00000	0.00000	0.00000	0.00000	0.00000	-1148.82800	737.31647	2785.04517	-1135.20166	734.52075	2742.17383	0.00000	0.00000	0.00000	-4214.39893	541.88257	48.96212	-1196.54407	735.76208	2721.05005	0.00000	0.00000	0.00000	0.00000	0.00000	0.00000	0.00000	0.00000	0.00000	-4174.31055	119.10135	87.12372	-4143.97217	142.09880	177.77921	-4223.55078	77.54544	145.22404	-4050.90332	85.76318	49.14181	-3982.46362	127.76337	110.79034	-4016.20654	101.87224	158.45648	-4472.14746	1034.21155	240.12408	-4311.14209	997.27295	331.55673	-4423.18896	639.65033	353.13162	-4421.21143	596.20947	346.28659	-4364.14551	639.69537	354.67337	0.00000	0.00000	0.00000	-4407.18213	512.45209	331.98355	-4426.92383	500.01050	218.28833	-4431.56836	404.59750	342.92450	0.00000	0.00000	0.00000	-4494.28564	418.11932	346.21436	-4499.78125	373.62619	340.48569	-4522.21924	107.35611	279.83032	0.00000	0.00000	0.00000	-4587.69629	80.60650	220.19080	-4375.64453	54.43122	217.17636	-4361.25537	73.10037	271.41525	-4410.19434	50.59996	328.87839
1374	11.44167	-4467.60693	1022.69904	154.01363	0.00000	0.00000	0.00000	0.00000	0.00000	0.00000	0.00000	0.00000	0.00000	-1148.85889	737.28967	2785.05542	-1135.23352	734.51520	2742.18188	0.00000	0.00000	0.00000	-4211.66162	540.97119	48.95484	-1196.61584	735.73907	2721.04248	0.00000	0.00000	0.00000	0.00000	0.00000	0.00000	0.00000	0.00000	0.00000	-4161.81641	119.15485	87.77728	-4132.27686	142.68613	178.52219	-4210.27979	76.59130	145.73718	-4037.79761	88.39914	50.27436	-3970.45312	131.46390	112.26443	-4003.75073	104.97849	159.77802	-4469.03223	1033.91260	240.27850	0.00000	0.00000	0.00000	-4422.42285	639.84619	353.80777	-4420.56641	596.25885	346.92023	-4363.33643	639.49860	355.33353	0.00000	0.00000	0.00000	-4407.27148	512.42328	332.74475	-4426.91260	500.05981	218.89755	-4431.88721	404.55981	343.55899	0.00000	0.00000	0.00000	-4494.63965	418.04309	346.74957	-4500.12354	373.59213	340.91504	-4522.28027	107.32384	279.88226	0.00000	0.00000	0.00000	-4587.71875	80.57907	220.18896	-4375.54492	54.49058	217.22012	-4361.27393	73.08872	271.42786	-4410.19287	50.56702	328.92838
1375	11.45000	-4464.22559	1022.22675	154.24657	0.00000	0.00000	0.00000	0.00000	0.00000	0.00000	0.00000	0.00000	0.00000	-1148.89551	737.31598	2785.03540	-1135.35571	734.48889	2742.21875	0.00000	0.00000	0.00000	-4208.93164	540.05219	48.82967	-1196.70825	735.71582	2721.04980	0.00000	0.00000	0.00000	0.00000	0.00000	0.00000	0.00000	0.00000	0.00000	-4149.66211	119.37182	88.42271	-4121.19775	143.50642	179.43433	-4197.41943	75.92735	146.20976	-4024.84912	90.88772	51.41317	-3961.62476	133.91289	114.08633	-3991.83179	108.07346	161.04300	-4465.80615	1033.57434	240.42612	0.00000	0.00000	0.00000	-4421.51953	639.96655	354.48706	-4420.04688	596.44330	347.66510	-4362.52686	639.35162	356.04538	0.00000	0.00000	0.00000	-4407.23096	512.31244	333.39157	-4426.83154	500.05182	219.56641	-4432.22070	404.50580	344.21570	0.00000	0.00000	0.00000	-4494.99121	418.00049	347.24698	-4500.46729	373.57181	341.38489	-4522.32227	107.28955	279.91733	-4490.14648	118.95818	191.08121	-4587.75195	80.57966	220.17567	0.00000	0.00000	0.00000	-4361.33008	73.08033	271.47168	-4410.24902	50.54212	328.96332
1376	11.45833	-4460.70312	1021.71179	154.52475	0.00000	0.00000	0.00000	0.00000	0.00000	0.00000	0.00000	0.00000	0.00000	-1148.95593	737.28925	2785.04761	-1135.43359	734.47333	2742.20972	0.00000	0.00000	0.00000	-4205.94434	539.07373	48.72144	-1196.78760	735.70483	2721.06226	0.00000	0.00000	0.00000	0.00000	0.00000	0.00000	0.00000	0.00000	0.00000	-4138.09082	119.82392	89.07215	-4110.37402	144.31691	180.15744	-4185.25342	75.57761	146.66321	-4012.61670	93.43287	52.61230	-3950.43066	137.51376	115.69231	-3981.30591	109.73676	161.38524	-4462.40332	1033.22632	240.61794	0.00000	0.00000	0.00000	-4420.57275	640.09937	355.18973	-4419.48926	596.70520	348.54868	-4361.66162	639.21033	356.76083	0.00000	0.00000	0.00000	-4407.42773	512.38184	334.24969	-4426.86084	500.22461	220.43849	-4432.59717	404.45996	344.94724	0.00000	0.00000	0.00000	-4495.39502	418.02466	347.74854	-4500.76514	373.53134	341.85062	-4522.32080	107.23890	279.96033	-4482.19922	118.20627	185.95892	-4587.74951	80.60899	220.16338	0.00000	0.00000	0.00000	-4361.73730	73.04077	271.76840	-4410.29053	50.57277	329.02014
